<svg version="1.2" xmlns="http://www.w3.org/2000/svg" viewBox="0 0 256 162" width="256" height="162">
	<title>maestro</title>
	<style>
		.s0 { fill: #ffffff;stroke: #ffffff;stroke-width: .4 } 
		.s1 { fill: #d9222a;stroke: #ffffff;stroke-width: .4 } 
		.s2 { fill: #0097d0;stroke: #ffffff;stroke-width: .4 } 
	</style>
	<g id="SVGRepo_bgCarrier">
	</g>
	<g id="SVGRepo_tracerCarrier">
	</g>
	<g id="SVGRepo_iconCarrier">
		<path class="s0" d="m13.1 0h229.8c7.2 0 13.1 5.9 13.1 13.1v137.9c0 7.2-5.9 13.1-13.1 13.1h-229.8c-7.2 0-13.1-5.9-13.1-13.1v-137.9c0-7.2 5.9-13.1 13.1-13.1z"/>
		<path class="s1" d="m226.5 82.1c0 32.5-26.4 58.9-58.9 58.9-32.6 0-59-26.4-59-58.9 0-32.6 26.4-59 59-59 32.5 0 58.9 26.4 58.9 59z"/>
		<path class="s2" d="m122 119.5q-2.4-3-4.4-6.3h20.8q1.9-3 3.4-6.2h-27.6q-1.5-3.1-2.5-6.3h32.6c2-5.8 3.1-12.1 3.1-18.6 0-4.3-0.5-8.5-1.4-12.5h-36q0.7-3.2 1.7-6.3h32.6q-1-3.2-2.5-6.2h-27.6q1.5-3.2 3.4-6.2h20.8q-2-3.3-4.5-6.3h-11.8q2.7-3.3 5.9-6.2c-10.5-9.5-24.3-15.3-39.6-15.3-32.5 0-58.9 26.4-58.9 59 0 32.5 26.4 58.9 58.9 58.9 15.3 0 29.1-5.8 39.6-15.3q3.2-2.9 6-6.2c0 0-12 0-12 0z"/>
		<path class="s0" d="m218.6 114.9c0-1.1 0.9-1.9 1.9-1.9 1.1 0 1.9 0.8 1.9 1.9 0 1-0.8 1.9-1.9 1.9-1 0-1.9-0.9-1.9-1.9zm1.9 1.4c0.8 0 1.5-0.6 1.5-1.4 0-0.8-0.7-1.5-1.5-1.5-0.8 0-1.4 0.7-1.4 1.5 0 0.8 0.6 1.4 1.4 1.4zm-0.2-0.6h-0.4v-1.7h0.7c0.1 0 0.3 0.1 0.4 0.1 0.1 0.1 0.2 0.3 0.2 0.5 0 0.1-0.1 0.3-0.3 0.4l0.3 0.7h-0.4l-0.3-0.6h-0.2zm0-1h0.2q0.1 0 0.2 0 0.1-0.1 0.1-0.2 0-0.1-0.1-0.2c-0.1 0-0.2 0-0.2 0h-0.2zm-93.1-16.8c-2.6 0.7-5 1-7.6 1-8.2 0-12.5-3.8-12.5-10.9 0-8.4 5.5-14.5 12.9-14.5 6 0 9.9 3.4 9.9 8.8 0 1.8-0.3 3.6-0.9 6h-14.6c-0.5 3.5 2 5 6.4 5 2.6 0 4.9-0.4 7.5-1.5zm-3.9-14.5c0-0.5 0.8-4.2-3.4-4.3-2.4 0-4 1.5-4.7 4.3zm8.9-1.6c0 3.1 1.7 5.2 5.6 6.8 3.1 1.2 3.5 1.6 3.5 2.7 0 1.5-1.3 2.2-4.3 2.2-2.2 0-4.2-0.3-6.6-0.9l-1.1 5.6c2.2 0.5 5.2 0.7 7.8 0.7 7.9 0 11.5-2.6 11.5-8.1 0-3.4-1.5-5.4-5.2-6.8-3.2-1.3-3.5-1.6-3.5-2.7q0-2 3.6-2c1.5 0 3.5 0.1 5.4 0.4l1.1-5.7c-2-0.3-4.9-0.5-6.6-0.5-8.4 0-11.3 3.8-11.2 8.3zm-29 16.7h-6.1l0.1-2.6c-1.8 2.1-4.3 3-7.7 3-4 0-6.7-2.7-6.7-6.6 0-6 4.7-9.5 12.9-9.5 0.8 0 1.9 0.1 3 0.2 0.2-0.8 0.3-1.1 0.3-1.6 0-1.6-1.3-2.2-4.7-2.2-3.4 0-5.7 0.5-7.8 1.1l1-5.5c3.7-0.9 6.1-1.3 8.8-1.3 6.3 0 9.7 2.5 9.7 7.2 0 1.2-0.4 3.7-0.6 4.8-0.3 1.6-2 10.8-2.2 13zm-5.4-10.9c-0.8-0.1-1.1-0.1-1.6-0.1-4.2 0-6.3 1.3-6.3 3.7 0 1.6 1 2.5 2.6 2.5 3 0 5.2-2.5 5.3-6.1zm63.7 10.5c-2 0.6-3.5 0.8-5.2 0.8-3.8 0-5.8-1.9-5.8-5.3-0.2-1 0.8-5.3 1-6.5 0.2-1.2 3.4-18.9 3.4-18.9h7.3l-1.1 5.9h3.8l-1.1 5.9h-3.7c0 0-2.1 10.4-2.1 11.2 0 1.2 0.8 1.8 2.5 1.8q1.3 0 2-0.2zm32.6-24.7c-5.4 0-9.5 2.2-12 5.9l2.1-5.4c-3.8-1.5-6.3 0.6-8.6 3.5 0 0-0.4 0.4-0.8 0.9v-4.3h-6.8c-0.9 7.6-2.6 15.2-3.9 22.8l-0.3 1.6h7.4c0.7-3.8 1.3-6.9 1.8-9.4 1.6-6.8 4.2-8.9 8.2-8-0.9 2-1.4 4.2-1.4 6.8 0 6.1 3.3 11 11.5 11 8.3 0 14.3-4.4 14.3-14.5 0-6.1-4-10.9-11.5-10.9zm-2.2 19.5c-2.6 0.1-4.1-2.1-4.1-5.4 0-3.9 2.3-8.2 6-8.2 2.9 0 4 2.3 4 4.9 0 5.5-2.3 8.7-5.9 8.7zm-112.6 5.5h-7.3l4.3-22.9-10 22.9h-6.7l-1.2-22.8-4.4 22.8h-6.6l5.6-29.8h11.5l0.9 16.6 7.3-16.6h12.4z"/>
		<path class="s0" d="m206.2 94.8c0-1 0.8-1.9 1.9-1.9 1 0 1.9 0.9 1.9 1.9 0 1.1-0.9 1.9-1.9 1.9-1.1 0-1.9-0.8-1.9-1.9zm1.9 1.5c0.8 0 1.4-0.7 1.4-1.5 0-0.8-0.6-1.4-1.4-1.4-0.8 0-1.5 0.6-1.5 1.4 0 0.8 0.7 1.5 1.5 1.5zm-0.3-0.6h-0.4v-1.7h0.7c0.2 0 0.3 0 0.5 0.1 0.1 0.1 0.2 0.2 0.2 0.4 0 0.2-0.1 0.4-0.3 0.4l0.3 0.8h-0.5l-0.2-0.7h-0.3zm0-1h0.2q0.1 0.1 0.3 0 0.1-0.1 0.1-0.2 0-0.1-0.1-0.1c-0.1-0.1-0.2-0.1-0.3-0.1h-0.2zm-78.8 1.5c-2.5 0.6-4.9 0.9-7.5 0.9-8.2 0-12.5-3.7-12.5-10.9 0-8.3 5.4-14.5 12.8-14.5 6.1 0 9.9 3.5 9.9 8.9 0 1.8-0.2 3.5-0.9 6h-14.6c-0.5 3.5 2.1 5 6.4 5 2.6 0 4.9-0.5 7.6-1.5zm-4-14.5c0-0.5 0.8-4.3-3.4-4.3-2.3 0-4 1.5-4.7 4.3zm8.9-1.6c0 3.1 1.7 5.2 5.7 6.8 3 1.2 3.5 1.6 3.5 2.7 0 1.5-1.3 2.2-4.3 2.2-2.2 0-4.3-0.3-6.7-1l-1 5.7c2.1 0.5 5.1 0.6 7.7 0.7 7.9 0 11.6-2.6 11.6-8.2 0-3.3-1.6-5.3-5.3-6.8-3.1-1.2-3.5-1.5-3.5-2.6 0-1.4 1.2-2 3.7-2 1.4 0 3.4 0.1 5.3 0.3l1.1-5.6c-1.9-0.3-4.9-0.5-6.6-0.5-8.3 0-11.2 3.7-11.2 8.3zm-29 16.7h-6.1l0.2-2.6c-1.9 2-4.4 3-7.8 3-4 0-6.7-2.7-6.7-6.7 0-5.9 4.8-9.4 12.9-9.4 0.9 0 1.9 0.1 3 0.2 0.3-0.8 0.3-1.1 0.3-1.6 0-1.6-1.3-2.2-4.7-2.2-3.4 0-5.7 0.5-7.8 1.1l1-5.5c3.7-1 6.1-1.3 8.8-1.3 6.4 0 9.7 2.5 9.7 7.1 0.1 1.3-0.4 3.8-0.6 4.9-0.2 1.6-2 10.8-2.2 13zm-5.3-10.9c-0.8-0.1-1.1-0.1-1.7-0.1-4.2 0-6.3 1.2-6.3 3.7 0 1.5 1.1 2.5 2.7 2.5 3 0 5.1-2.5 5.3-6.1zm63.7 10.5c-2 0.5-3.6 0.8-5.3 0.8-3.7 0-5.8-1.9-5.8-5.3-0.1-1 0.8-5.3 1-6.5 0.2-1.2 3.5-18.9 3.5-18.9h7.3l-1.1 5.8h3.7l-1 6h-3.8c0 0-2 10.4-2 11.1 0 1.3 0.7 1.8 2.5 1.8q1.2 0 1.9-0.2zm44.2-13.7c0-6.1-4-10.9-11.6-10.9-8.7 0-14.3 5.8-14.3 14.3 0 6.1 3.3 11.1 11.6 11.1 8.3 0 14.3-4.4 14.3-14.5zm-7.9-0.2c0 5.5-2.3 8.8-5.8 8.8-2.6 0-4.2-2.2-4.2-5.4 0-3.9 2.3-8.3 6-8.3 3 0 4 2.4 4 4.9zm-29.8-10.1c-0.9 7.5-2.5 15.2-3.8 22.8l-0.3 1.6h7.3c2.7-14.6 3.6-18.8 9.1-17.3l2.7-6.9c-3.9-1.5-6.4 0.6-8.6 3.5 0.2-1.3 0.6-2.6 0.5-3.7zm-88.7 24.4h-7.3l4.3-23-10 23h-6.7l-1.2-22.8-4.4 22.8h-6.7l5.7-29.9h11.5l0.6 18.5 8-18.5h12c0 0-5.8 29.9-5.8 29.9z"/>
	</g>
</svg>